<svg xmlns="http://www.w3.org/2000/svg" fill="#666" xmlns:xlink="http://www.w3.org/1999/xlink" viewBox="-257.5 242.5 32 32" id="icon-cross"> <path d="M-229.72,265.78L-229.72,265.78l-7.28-7.28l7.28-7.28l0,0 c0.079-0.079,0.135-0.17,0.171-0.268c0.1-0.267,0.042-0.579-0.171-0.793l-3.439-3.439c-0.214-0.215-0.526-0.272-0.792-0.171 c-0.098,0.036-0.189,0.092-0.268,0.171l0,0l-7.28,7.28l-7.281-7.28l0,0c-0.078-0.079-0.169-0.135-0.268-0.171 c-0.267-0.1-0.579-0.044-0.793,0.171l-3.439,3.439c-0.215,0.214-0.272,0.526-0.171,0.793c0.036,0.098,0.093,0.188,0.171,0.268l0,0 l7.281,7.28l-7.281,7.28l0,0c-0.078,0.079-0.135,0.17-0.171,0.268c-0.1,0.267-0.044,0.579,0.171,0.793l3.439,3.439 c0.214,0.215,0.526,0.272,0.793,0.171c0.098-0.036,0.19-0.092,0.268-0.171l0,0l7.281-7.28l7.28,7.28l0,0 c0.079,0.079,0.17,0.135,0.268,0.171c0.267,0.1,0.579,0.044,0.792-0.171l3.439-3.439c0.215-0.214,0.272-0.526,0.171-0.793 C-229.585,265.95-229.641,265.859-229.72,265.78z"/> </svg>
